<svg width="36" height="36" viewBox="0 0 36 36" fill="none" xmlns="http://www.w3.org/2000/svg">
<path fill-rule="evenodd" clip-rule="evenodd" d="M24.75 6C25.1642 6 25.5 6.33579 25.5 6.75C25.5 7.74456 25.8951 8.69839 26.5984 9.40165C27.3016 10.1049 28.2554 10.5 29.25 10.5C29.6642 10.5 30 10.8358 30 11.25C30 11.6642 29.6642 12 29.25 12C28.2554 12 27.3016 12.3951 26.5984 13.0983C25.8951 13.8016 25.5 14.7554 25.5 15.75C25.5 16.1642 25.1642 16.5 24.75 16.5C24.3358 16.5 24 16.1642 24 15.75C24 14.7554 23.6049 13.8016 22.9016 13.0983C22.1984 12.3951 21.2446 12 20.25 12C19.8358 12 19.5 11.6642 19.5 11.25C19.5 10.8358 19.8358 10.5 20.25 10.5C21.2446 10.5 22.1984 10.1049 22.9016 9.40165C23.6049 8.69839 24 7.74456 24 6.75C24 6.33579 24.3358 6 24.75 6ZM24.75 9.45419C24.5313 9.81811 24.2676 10.1571 23.9623 10.4623C23.6571 10.7676 23.3181 11.0313 22.9542 11.25C23.3181 11.4687 23.6571 11.7324 23.9623 12.0377C24.2676 12.3429 24.5313 12.6819 24.75 13.0458C24.9687 12.6819 25.2324 12.3429 25.5377 12.0377C25.8429 11.7324 26.1819 11.4687 26.5458 11.25C26.1819 11.0313 25.8429 10.7676 25.5377 10.4623C25.2324 10.1571 24.9687 9.81811 24.75 9.45419ZM14.25 13.5C14.6642 13.5 15 13.8358 15 14.25C15 16.0402 15.7112 17.7571 16.977 19.023C18.2429 20.2888 19.9598 21 21.75 21C22.1642 21 22.5 21.3358 22.5 21.75C22.5 22.1642 22.1642 22.5 21.75 22.5C19.9598 22.5 18.2429 23.2112 16.977 24.477C15.7112 25.7429 15 27.4598 15 29.25C15 29.6642 14.6642 30 14.25 30C13.8358 30 13.5 29.6642 13.5 29.25C13.5 28.3636 13.3254 27.4858 12.9862 26.6669C12.647 25.8479 12.1498 25.1038 11.523 24.477C10.8962 23.8502 10.1521 23.353 9.33311 23.0138C8.51417 22.6746 7.63642 22.5 6.75 22.5C6.33579 22.5 6 22.1642 6 21.75C6 21.3358 6.33579 21 6.75 21C7.63642 21 8.51417 20.8254 9.33311 20.4862C10.1521 20.147 10.8962 19.6498 11.523 19.023C12.1498 18.3962 12.647 17.6521 12.9862 16.8331C13.3254 16.0142 13.5 15.1364 13.5 14.25C13.5 13.8358 13.8358 13.5 14.25 13.5ZM14.25 17.6869C13.8418 18.5778 13.2777 19.3896 12.5836 20.0836C11.8896 20.7777 11.0778 21.3418 10.1869 21.75C11.0778 22.1582 11.8896 22.7223 12.5836 23.4164C13.2777 24.1104 13.8418 24.9222 14.25 25.8131C14.6548 24.9298 15.2161 24.1166 15.9164 23.4164C16.6166 22.7161 17.4298 22.1548 18.3131 21.75C17.4298 21.3452 16.6166 20.7839 15.9164 20.0836C15.2161 19.3834 14.6548 18.5702 14.25 17.6869Z" fill="#8A78A0"/>
</svg>
